# xmcd
#
# Track frame offsets: 
#        150
#        12265
#        24317
#        32392
#        44832
#        53230
#        65235
#        76430
#        90050
#        100660
#        112057
#        122100
#        133117
#        143370
#        153082
#        161597
#        172502
#        183360
#        194277
#
# Disc length: 2749 seconds
#
# Revision: 1
# Processed by: cddbd v1.5.2PL0 Copyright (c) Steve Scherf et al.
# Submitted via: ExactAudioCopy v1.3
#
DISCID=e90abb13
DTITLE=Jerry Lee Lewis - Golden Rock and Roll Years
DYEAR=1900
DGENRE=Rock and Roll
TTITLE0=Whole Lotta Shakin' Goin' On
TTITLE1=Fools Like Me
TTITLE2=Great Balls of Fire
TTITLE3=I'll Make It All Up To You
TTITLE4=End Of The Road
TTITLE5=Breathless
TTITLE6=Crazy Arms
TTITLE7=You Win Again
TTITLE8=High School Confidential
TTITLE9=Your Cheating Heart
TTITLE10=It'll Be Me
TTITLE11=Sweet Little Sixteen
TTITLE12=Good Golly Miss Molly
TTITLE13=I'll Sail My Ship Alone
TTITLE14=Save The Last Dance For Me
TTITLE15=What'd I Say
TTITLE16=Little Queenie
TTITLE17=Mean Woman
TTITLE18=Break Up
EXTD=
EXTT0=
EXTT1=
EXTT2=
EXTT3=
EXTT4=
EXTT5=
EXTT6=
EXTT7=
EXTT8=
EXTT9=
EXTT10=
EXTT11=
EXTT12=
EXTT13=
EXTT14=
EXTT15=
EXTT16=
EXTT17=
EXTT18=
PLAYORDER=
